<svg width="78" height="64" viewBox="0 0 78 64" fill="none" xmlns="http://www.w3.org/2000/svg">
<rect width="78" height="64" rx="20" fill="#57BE6C"/>
<path d="M54.0918 44.5479C55.1441 44.5479 56 45.3693 56 46.3792C56 47.3911 55.1441 48.2105 54.0918 48.2105H43.3061C42.2538 48.2105 41.3979 47.3911 41.3979 46.3792C41.3979 45.3693 42.2538 44.5479 43.3061 44.5479H54.0918ZM46.6119 17.251L49.3981 19.3477C50.5406 20.1941 51.3023 21.3098 51.5628 22.4832C51.8635 23.774 51.5428 25.0417 50.6408 26.1382L34.0443 46.471C33.2826 47.3943 32.1602 47.9137 30.9575 47.9329L24.343 48.0099C23.9822 48.0099 23.6815 47.7791 23.6013 47.452L22.098 41.2772C21.8375 40.1422 22.098 38.9688 22.8597 38.0647L34.6256 23.6374C34.826 23.4066 35.1868 23.37 35.4273 23.5412L40.3782 27.2731C40.6989 27.5232 41.1399 27.6578 41.6009 27.6001C42.5831 27.4847 43.2445 26.6383 43.1443 25.7342C43.0842 25.2725 42.8437 24.8878 42.523 24.5992C42.4227 24.5223 37.7124 20.9443 37.7124 20.9443C37.4117 20.7135 37.3516 20.2903 37.5921 20.0037L39.4562 17.7126C41.18 15.6159 44.1866 15.4235 46.6119 17.251Z" fill="white"/>
</svg>
