<svg width="60" height="55" viewBox="0 0 60 55" fill="none" xmlns="http://www.w3.org/2000/svg">
<rect width="60" height="55" rx="15" fill="#F2F2F2"/>
<path d="M30.4204 43.7152C39.2419 43.7152 46.3932 36.5639 46.3932 27.7424C46.3932 18.9208 39.2419 11.7695 30.4204 11.7695C21.5988 11.7695 14.4475 18.9208 14.4475 27.7424C14.4475 36.5639 21.5988 43.7152 30.4204 43.7152Z" fill="#AAAAAA"/>
<path d="M35.7408 16.2271H32.2886C30.24 16.2271 27.9613 17.1248 27.9613 20.2191C27.9713 21.2972 27.9613 22.3298 27.9613 23.4918H25.5913V27.4215H28.0347V38.7343H32.5244V27.3468H35.4878L35.7559 23.4808H32.447C32.447 23.4808 32.4544 21.761 32.447 21.2616C32.447 20.0388 33.6681 20.1088 33.7416 20.1088C34.3226 20.1088 35.4524 20.1106 35.7425 20.1088V16.2271H35.7408Z" fill="white"/>
</svg>
