<svg width="150" height="34" viewBox="0 0 150 34" fill="none" xmlns="http://www.w3.org/2000/svg">
<path d="M7.534 23.804C9.07533 23.804 10.1973 23.5433 10.9 23.022C11.6027 22.5007 11.954 21.764 11.954 20.812C11.954 20.2453 11.8293 19.758 11.58 19.35C11.3533 18.942 11.0133 18.5793 10.56 18.262C10.1293 17.922 9.59667 17.616 8.962 17.344C8.32733 17.0493 7.602 16.766 6.786 16.494C5.97 16.1993 5.17667 15.882 4.406 15.542C3.658 15.1793 2.98933 14.7373 2.4 14.216C1.83333 13.6947 1.36867 13.0713 1.006 12.346C0.666 11.6207 0.496 10.748 0.496 9.728C0.496 7.59733 1.23267 5.93133 2.706 4.73C4.17933 3.506 6.18533 2.894 8.724 2.894C10.1973 2.894 11.5007 3.064 12.634 3.404C13.79 3.72133 14.6967 4.07267 15.354 4.458L14.028 7.926C13.2573 7.49533 12.4073 7.16667 11.478 6.94C10.5713 6.71333 9.63067 6.6 8.656 6.6C7.5 6.6 6.59333 6.838 5.936 7.314C5.30133 7.79 4.984 8.45867 4.984 9.32C4.984 9.84133 5.086 10.2947 5.29 10.68C5.51667 11.0427 5.82267 11.3713 6.208 11.666C6.616 11.9607 7.08067 12.2327 7.602 12.482C8.146 12.7313 8.73533 12.9693 9.37 13.196C10.4807 13.604 11.4667 14.0233 12.328 14.454C13.212 14.862 13.9487 15.3607 14.538 15.95C15.15 16.5167 15.6147 17.1967 15.932 17.99C16.2493 18.7607 16.408 19.7013 16.408 20.812C16.408 22.9427 15.6487 24.5973 14.13 25.776C12.634 26.932 10.4353 27.51 7.534 27.51C6.55933 27.51 5.664 27.442 4.848 27.306C4.05467 27.1927 3.34067 27.0453 2.706 26.864C2.094 26.6827 1.56133 26.5013 1.108 26.32C0.654667 26.116 0.292 25.9347 0.02 25.776L1.278 22.274C1.89 22.614 2.71733 22.954 3.76 23.294C4.80267 23.634 6.06067 23.804 7.534 23.804ZM24.1273 27H20.0133V9.218H24.1273V27ZM24.5693 4.016C24.5693 4.78667 24.32 5.39867 23.8213 5.852C23.3227 6.30533 22.7333 6.532 22.0533 6.532C21.3507 6.532 20.75 6.30533 20.2513 5.852C19.7527 5.39867 19.5033 4.78667 19.5033 4.016C19.5033 3.22267 19.7527 2.59933 20.2513 2.146C20.75 1.69267 21.3507 1.466 22.0533 1.466C22.7333 1.466 23.3227 1.69267 23.8213 2.146C24.32 2.59933 24.5693 3.22267 24.5693 4.016ZM39.5078 17.65C39.5078 15.7913 39.2698 14.454 38.7938 13.638C38.3405 12.7993 37.4791 12.38 36.2098 12.38C35.7565 12.38 35.2578 12.414 34.7138 12.482C34.1698 12.55 33.7618 12.6067 33.4898 12.652V27H29.3758V9.796C30.1691 9.56933 31.2005 9.354 32.4698 9.15C33.7618 8.946 35.1218 8.844 36.5498 8.844C37.7738 8.844 38.7711 9.00267 39.5418 9.32C40.3351 9.63733 40.9925 10.0567 41.5138 10.578C41.7631 10.3967 42.0805 10.204 42.4658 10C42.8511 9.796 43.2818 9.61467 43.7578 9.456C44.2338 9.27467 44.7325 9.12733 45.2538 9.014C45.7978 8.90067 46.3418 8.844 46.8858 8.844C48.2685 8.844 49.4018 9.048 50.2858 9.456C51.1925 9.84133 51.8951 10.3967 52.3938 11.122C52.9151 11.8247 53.2665 12.686 53.4478 13.706C53.6518 14.7033 53.7538 15.8027 53.7538 17.004V27H49.6398V17.65C49.6398 15.7913 49.4131 14.454 48.9598 13.638C48.5065 12.7993 47.6338 12.38 46.3418 12.38C45.6845 12.38 45.0611 12.4933 44.4718 12.72C43.8825 12.924 43.4405 13.128 43.1458 13.332C43.3271 13.8987 43.4518 14.4993 43.5198 15.134C43.5878 15.7687 43.6218 16.4487 43.6218 17.174V27H39.5078V17.65ZM70.5918 18.194C70.5918 16.358 70.1724 14.93 69.3338 13.91C68.5178 12.89 67.1918 12.38 65.3558 12.38C64.9704 12.38 64.5624 12.4027 64.1318 12.448C63.7238 12.4707 63.3158 12.5387 62.9078 12.652V22.818C63.2704 23.0673 63.7464 23.3053 64.3358 23.532C64.9478 23.736 65.5938 23.838 66.2738 23.838C67.7698 23.838 68.8578 23.328 69.5378 22.308C70.2404 21.288 70.5918 19.9167 70.5918 18.194ZM74.8078 18.126C74.8078 19.486 74.6264 20.7327 74.2638 21.866C73.9238 22.9993 73.4251 23.974 72.7678 24.79C72.1104 25.606 71.2831 26.2407 70.2858 26.694C69.3111 27.1473 68.2004 27.374 66.9538 27.374C66.1151 27.374 65.3444 27.272 64.6418 27.068C63.9391 26.864 63.3611 26.6373 62.9078 26.388V33.29H58.7938V9.796C59.6324 9.56933 60.6638 9.354 61.8878 9.15C63.1118 8.946 64.4038 8.844 65.7638 8.844C67.1691 8.844 68.4271 9.05933 69.5378 9.49C70.6484 9.92067 71.5891 10.544 72.3598 11.36C73.1531 12.1533 73.7538 13.128 74.1618 14.284C74.5924 15.4173 74.8078 16.698 74.8078 18.126ZM86.8337 27.408C85.4057 27.408 84.1477 27.1813 83.0597 26.728C81.9944 26.2747 81.0877 25.64 80.3397 24.824C79.6144 24.008 79.0704 23.0447 78.7077 21.934C78.345 20.8007 78.1637 19.554 78.1637 18.194C78.1637 16.834 78.3564 15.5873 78.7417 14.454C79.1497 13.3207 79.7164 12.346 80.4417 11.53C81.167 10.6913 82.051 10.0453 83.0937 9.592C84.159 9.116 85.3377 8.878 86.6297 8.878C87.423 8.878 88.2164 8.946 89.0097 9.082C89.803 9.218 90.5624 9.43333 91.2877 9.728L90.5737 12.414C90.0977 12.1873 89.5424 12.006 88.9077 11.87C88.2957 11.734 87.6384 11.666 86.9357 11.666C85.1677 11.666 83.8077 12.2213 82.8557 13.332C81.9264 14.4427 81.4617 16.0633 81.4617 18.194C81.4617 19.146 81.5637 20.0187 81.7677 20.812C81.9944 21.6053 82.3344 22.2853 82.7877 22.852C83.2637 23.4187 83.8644 23.8607 84.5897 24.178C85.315 24.4727 86.199 24.62 87.2417 24.62C88.0804 24.62 88.8397 24.5407 89.5197 24.382C90.1997 24.2233 90.7324 24.0533 91.1177 23.872L91.5597 26.524C91.3784 26.6373 91.1177 26.7507 90.7777 26.864C90.4377 26.9547 90.0524 27.034 89.6217 27.102C89.191 27.1927 88.7264 27.2607 88.2277 27.306C87.7517 27.374 87.287 27.408 86.8337 27.408ZM110.129 18.16C110.129 19.5653 109.925 20.8347 109.517 21.968C109.109 23.1013 108.531 24.076 107.783 24.892C107.057 25.708 106.185 26.3427 105.165 26.796C104.145 27.2267 103.034 27.442 101.833 27.442C100.631 27.442 99.5207 27.2267 98.5007 26.796C97.4807 26.3427 96.5967 25.708 95.8487 24.892C95.1234 24.076 94.5567 23.1013 94.1487 21.968C93.7407 20.8347 93.5367 19.5653 93.5367 18.16C93.5367 16.7773 93.7407 15.5193 94.1487 14.386C94.5567 13.23 95.1234 12.244 95.8487 11.428C96.5967 10.612 97.4807 9.98867 98.5007 9.558C99.5207 9.10467 100.631 8.878 101.833 8.878C103.034 8.878 104.145 9.10467 105.165 9.558C106.185 9.98867 107.057 10.612 107.783 11.428C108.531 12.244 109.109 13.23 109.517 14.386C109.925 15.5193 110.129 16.7773 110.129 18.16ZM106.831 18.16C106.831 16.1653 106.377 14.59 105.471 13.434C104.587 12.2553 103.374 11.666 101.833 11.666C100.291 11.666 99.0674 12.2553 98.1607 13.434C97.2767 14.59 96.8347 16.1653 96.8347 18.16C96.8347 20.1547 97.2767 21.7413 98.1607 22.92C99.0674 24.076 100.291 24.654 101.833 24.654C103.374 24.654 104.587 24.076 105.471 22.92C106.377 21.7413 106.831 20.1547 106.831 18.16ZM130.183 18.16C130.183 19.5653 129.979 20.8347 129.571 21.968C129.163 23.1013 128.585 24.076 127.837 24.892C127.112 25.708 126.239 26.3427 125.219 26.796C124.199 27.2267 123.089 27.442 121.887 27.442C120.686 27.442 119.575 27.2267 118.555 26.796C117.535 26.3427 116.651 25.708 115.903 24.892C115.178 24.076 114.611 23.1013 114.203 21.968C113.795 20.8347 113.591 19.5653 113.591 18.16C113.591 16.7773 113.795 15.5193 114.203 14.386C114.611 13.23 115.178 12.244 115.903 11.428C116.651 10.612 117.535 9.98867 118.555 9.558C119.575 9.10467 120.686 8.878 121.887 8.878C123.089 8.878 124.199 9.10467 125.219 9.558C126.239 9.98867 127.112 10.612 127.837 11.428C128.585 12.244 129.163 13.23 129.571 14.386C129.979 15.5193 130.183 16.7773 130.183 18.16ZM126.885 18.16C126.885 16.1653 126.432 14.59 125.525 13.434C124.641 12.2553 123.429 11.666 121.887 11.666C120.346 11.666 119.122 12.2553 118.215 13.434C117.331 14.59 116.889 16.1653 116.889 18.16C116.889 20.1547 117.331 21.7413 118.215 22.92C119.122 24.076 120.346 24.654 121.887 24.654C123.429 24.654 124.641 24.076 125.525 22.92C126.432 21.7413 126.885 20.1547 126.885 18.16ZM141.024 17.276C141.704 17.7973 142.418 18.4433 143.166 19.214C143.937 19.9847 144.685 20.8233 145.41 21.73C146.158 22.614 146.861 23.5207 147.518 24.45C148.175 25.3567 148.731 26.2067 149.184 27H145.478C145.002 26.2067 144.447 25.402 143.812 24.586C143.2 23.7473 142.554 22.954 141.874 22.206C141.194 21.4353 140.503 20.7327 139.8 20.098C139.097 19.4633 138.429 18.9307 137.794 18.5V27H134.632V1.16L137.794 0.615999V16.732C138.338 16.188 138.939 15.5873 139.596 14.93C140.253 14.2727 140.899 13.604 141.534 12.924C142.169 12.244 142.769 11.598 143.336 10.986C143.903 10.3513 144.39 9.796 144.798 9.32H148.504C147.983 9.88667 147.416 10.51 146.804 11.19C146.192 11.87 145.557 12.5613 144.9 13.264C144.243 13.944 143.574 14.6353 142.894 15.338C142.237 16.018 141.613 16.664 141.024 17.276Z" fill="white"/>
</svg>
