<svg width="140" height="31" viewBox="0 0 140 31" fill="none" xmlns="http://www.w3.org/2000/svg">
<path d="M9.24 24.32C7.81067 24.32 6.41333 24.16 5.048 23.84C3.704 23.52 2.53067 23.04 1.528 22.4C1.03733 22.08 0.738667 21.6853 0.632 21.216C0.525333 20.7467 0.557333 20.3093 0.728 19.904C0.92 19.4773 1.208 19.1893 1.592 19.04C1.99733 18.8693 2.456 18.944 2.968 19.264C3.90667 19.8187 4.89867 20.224 5.944 20.48C6.98933 20.736 8.088 20.864 9.24 20.864C10.9253 20.864 12.152 20.5867 12.92 20.032C13.688 19.456 14.072 18.72 14.072 17.824C14.072 17.0773 13.7947 16.4907 13.24 16.064C12.7067 15.6373 11.7787 15.2853 10.456 15.008L6.936 14.272C2.92533 13.4187 0.92 11.36 0.92 8.096C0.92 6.688 1.29333 5.46133 2.04 4.416C2.78667 3.37067 3.82133 2.56 5.144 1.984C6.46667 1.408 7.992 1.12 9.72 1.12C11 1.12 12.216 1.28 13.368 1.6C14.52 1.92 15.5547 2.38933 16.472 3.008C16.8987 3.30667 17.1547 3.68 17.24 4.128C17.3253 4.55467 17.272 4.96 17.08 5.344C16.888 5.70667 16.5787 5.96267 16.152 6.112C15.7467 6.24 15.2667 6.144 14.712 5.824C13.9227 5.376 13.1227 5.056 12.312 4.864C11.5013 4.672 10.6267 4.576 9.688 4.576C8.216 4.576 7.064 4.88533 6.232 5.504C5.4 6.12267 4.984 6.93333 4.984 7.936C4.984 8.704 5.24 9.32267 5.752 9.792C6.264 10.24 7.13867 10.592 8.376 10.848L11.864 11.584C13.976 12.032 15.544 12.736 16.568 13.696C17.6133 14.656 18.136 15.936 18.136 17.536C18.136 18.88 17.7733 20.064 17.048 21.088C16.3227 22.112 15.288 22.912 13.944 23.488C12.6213 24.0427 11.0533 24.32 9.24 24.32ZM23.2515 5.152C22.5048 5.152 21.9182 4.97067 21.4915 4.608C21.0862 4.224 20.8835 3.70133 20.8835 3.04C20.8835 2.35733 21.0862 1.83467 21.4915 1.472C21.9182 1.10933 22.5048 0.927999 23.2515 0.927999C24.8302 0.927999 25.6195 1.632 25.6195 3.04C25.6195 4.448 24.8302 5.152 23.2515 5.152ZM23.2515 24.224C22.6115 24.224 22.1208 24.032 21.7795 23.648C21.4382 23.264 21.2675 22.7307 21.2675 22.048V10.304C21.2675 8.85333 21.9288 8.128 23.2515 8.128C24.5955 8.128 25.2675 8.85333 25.2675 10.304V22.048C25.2675 22.7307 25.0968 23.264 24.7555 23.648C24.4142 24.032 23.9128 24.224 23.2515 24.224ZM31.4718 24.256C30.1491 24.256 29.4878 23.5733 29.4878 22.208V10.112C29.4878 8.768 30.1384 8.096 31.4398 8.096C32.7411 8.096 33.3918 8.768 33.3918 10.112V10.752C33.8611 9.89867 34.5118 9.23733 35.3438 8.768C36.1758 8.27733 37.1358 8.032 38.2238 8.032C40.5704 8.032 42.1064 9.056 42.8318 11.104C43.3224 10.144 44.0264 9.39733 44.9438 8.864C45.8611 8.30933 46.9064 8.032 48.0798 8.032C51.5998 8.032 53.3598 10.176 53.3598 14.464V22.208C53.3598 23.5733 52.6878 24.256 51.3438 24.256C50.0211 24.256 49.3598 23.5733 49.3598 22.208V14.624C49.3598 13.4293 49.1571 12.5547 48.7518 12C48.3678 11.4453 47.7064 11.168 46.7678 11.168C45.7224 11.168 44.9011 11.5413 44.3038 12.288C43.7064 13.0133 43.4078 14.0267 43.4078 15.328V22.208C43.4078 23.5733 42.7464 24.256 41.4238 24.256C40.0798 24.256 39.4078 23.5733 39.4078 22.208V14.624C39.4078 13.4293 39.2051 12.5547 38.7998 12C38.4158 11.4453 37.7651 11.168 36.8478 11.168C35.8024 11.168 34.9811 11.5413 34.3838 12.288C33.7864 13.0133 33.4878 14.0267 33.4878 15.328V22.208C33.4878 23.5733 32.8158 24.256 31.4718 24.256ZM59.4703 30.016C58.1476 30.016 57.4863 29.344 57.4863 28V10.112C57.4863 8.768 58.1369 8.096 59.4383 8.096C60.7609 8.096 61.4223 8.768 61.4223 10.112V10.784C61.8703 9.952 62.5423 9.29067 63.4383 8.8C64.3343 8.288 65.3583 8.032 66.5103 8.032C67.8756 8.032 69.0703 8.36267 70.0943 9.024C71.1396 9.68533 71.9503 10.624 72.5263 11.84C73.1023 13.0347 73.3903 14.4747 73.3903 16.16C73.3903 17.824 73.1023 19.2747 72.5263 20.512C71.9503 21.728 71.1503 22.6667 70.1263 23.328C69.1023 23.9893 67.8969 24.32 66.5103 24.32C65.4009 24.32 64.3983 24.0853 63.5023 23.616C62.6276 23.1253 61.9556 22.4747 61.4863 21.664V28C61.4863 29.344 60.8143 30.016 59.4703 30.016ZM65.3903 21.28C66.5849 21.28 67.5449 20.8533 68.2703 20C68.9956 19.1253 69.3583 17.8453 69.3583 16.16C69.3583 14.4533 68.9956 13.184 68.2703 12.352C67.5449 11.4987 66.5849 11.072 65.3903 11.072C64.1956 11.072 63.2356 11.4987 62.5103 12.352C61.7849 13.184 61.4223 14.4533 61.4223 16.16C61.4223 17.8453 61.7849 19.1253 62.5103 20C63.2356 20.8533 64.1956 21.28 65.3903 21.28Z" fill="#F58D41"/>
<path d="M83.6178 24.288C82.0604 24.288 80.7164 23.9573 79.5858 23.296C78.4551 22.6133 77.5804 21.664 76.9618 20.448C76.3644 19.2107 76.0658 17.7707 76.0658 16.128C76.0658 13.6533 76.7378 11.712 78.0818 10.304C79.4258 8.87467 81.2711 8.16 83.6178 8.16C84.3858 8.16 85.1858 8.288 86.0178 8.544C86.8498 8.77867 87.6071 9.17333 88.2898 9.728C88.6524 9.984 88.8018 10.304 88.7378 10.688C88.6951 11.072 88.5138 11.36 88.1938 11.552C87.8951 11.744 87.5431 11.7013 87.1378 11.424C86.5618 10.9973 85.9858 10.6987 85.4098 10.528C84.8551 10.3573 84.3111 10.272 83.7778 10.272C82.1564 10.272 80.9084 10.784 80.0338 11.808C79.1591 12.8107 78.7218 14.2613 78.7218 16.16C78.7218 18.016 79.1591 19.488 80.0338 20.576C80.9084 21.6427 82.1564 22.176 83.7778 22.176C84.3111 22.176 84.8551 22.0907 85.4098 21.92C85.9858 21.7493 86.5618 21.4507 87.1378 21.024C87.5431 20.7467 87.8951 20.7147 88.1938 20.928C88.4924 21.12 88.6524 21.408 88.6738 21.792C88.7164 22.176 88.5671 22.4853 88.2258 22.72C87.5431 23.2747 86.7964 23.68 85.9858 23.936C85.1751 24.1707 84.3858 24.288 83.6178 24.288ZM97.9898 24.288C96.4751 24.288 95.1631 23.9573 94.0538 23.296C92.9444 22.6347 92.0804 21.7067 91.4618 20.512C90.8644 19.296 90.5658 17.8667 90.5658 16.224C90.5658 14.5813 90.8644 13.1627 91.4618 11.968C92.0804 10.752 92.9444 9.81333 94.0538 9.152C95.1631 8.49067 96.4751 8.16 97.9898 8.16C99.4831 8.16 100.784 8.49067 101.894 9.152C103.024 9.81333 103.888 10.752 104.486 11.968C105.104 13.1627 105.414 14.5813 105.414 16.224C105.414 17.8667 105.104 19.296 104.486 20.512C103.888 21.7067 103.024 22.6347 101.894 23.296C100.784 23.9573 99.4831 24.288 97.9898 24.288ZM97.9898 22.208C99.4404 22.208 100.603 21.696 101.478 20.672C102.352 19.6267 102.79 18.144 102.79 16.224C102.79 14.2827 102.352 12.8 101.478 11.776C100.603 10.752 99.4404 10.24 97.9898 10.24C96.5178 10.24 95.3444 10.752 94.4698 11.776C93.6164 12.8 93.1898 14.2827 93.1898 16.224C93.1898 18.144 93.6164 19.6267 94.4698 20.672C95.3444 21.696 96.5178 22.208 97.9898 22.208ZM115.771 24.288C114.256 24.288 112.944 23.9573 111.835 23.296C110.726 22.6347 109.862 21.7067 109.243 20.512C108.646 19.296 108.347 17.8667 108.347 16.224C108.347 14.5813 108.646 13.1627 109.243 11.968C109.862 10.752 110.726 9.81333 111.835 9.152C112.944 8.49067 114.256 8.16 115.771 8.16C117.264 8.16 118.566 8.49067 119.675 9.152C120.806 9.81333 121.67 10.752 122.267 11.968C122.886 13.1627 123.195 14.5813 123.195 16.224C123.195 17.8667 122.886 19.296 122.267 20.512C121.67 21.7067 120.806 22.6347 119.675 23.296C118.566 23.9573 117.264 24.288 115.771 24.288ZM115.771 22.208C117.222 22.208 118.384 21.696 119.259 20.672C120.134 19.6267 120.571 18.144 120.571 16.224C120.571 14.2827 120.134 12.8 119.259 11.776C118.384 10.752 117.222 10.24 115.771 10.24C114.299 10.24 113.126 10.752 112.251 11.776C111.398 12.8 110.971 14.2827 110.971 16.224C110.971 18.144 111.398 19.6267 112.251 20.672C113.126 21.696 114.299 22.208 115.771 22.208ZM128.368 24.224C127.515 24.224 127.088 23.776 127.088 22.88V2.528C127.088 1.65333 127.515 1.216 128.368 1.216C129.243 1.216 129.68 1.65333 129.68 2.528V15.36H129.744L136.304 9.088C136.582 8.81067 136.838 8.59733 137.072 8.448C137.307 8.29867 137.616 8.224 138 8.224C138.512 8.224 138.843 8.42667 138.992 8.832C139.163 9.216 139.056 9.61067 138.672 10.016L132.432 15.936L139.28 22.368C139.728 22.7947 139.846 23.2107 139.632 23.616C139.44 24.0213 139.11 24.224 138.64 24.224C138.256 24.224 137.936 24.1493 137.68 24C137.446 23.8293 137.168 23.584 136.848 23.264L129.744 16.704H129.68V22.88C129.68 23.776 129.243 24.224 128.368 24.224Z" fill="#222222"/>
</svg>
