<svg width="60" height="55" viewBox="0 0 60 55" fill="none" xmlns="http://www.w3.org/2000/svg">
<rect width="60" height="55" rx="15" fill="#F2F2F2"/>
<path d="M22.3921 43.6023C20.4923 43.5159 19.4603 43.1997 18.7738 42.9319C17.8643 42.5778 17.2158 42.1563 16.5332 41.4746C15.8505 40.7929 15.428 40.1444 15.0758 39.2348C14.808 38.5484 14.4919 37.5163 14.4055 35.6165C14.3105 33.5629 14.2915 32.9467 14.2915 27.7438C14.2915 22.5409 14.3124 21.9256 14.4045 19.8701C14.4909 17.9703 14.809 16.9401 15.0748 16.2518C15.429 15.3422 15.8515 14.6937 16.5322 14.0101C17.2139 13.3284 17.8624 12.905 18.7729 12.5528C19.4593 12.285 20.4914 11.9689 22.3912 11.8825C24.4458 11.7885 25.0629 11.7695 30.2639 11.7695C35.4669 11.7695 36.0821 11.7904 38.1376 11.8825C40.0375 11.9689 41.0676 12.2869 41.7559 12.5528C42.6655 12.905 43.314 13.3284 43.9966 14.0101C44.6793 14.6918 45.0999 15.3413 45.454 16.2508C45.7218 16.9373 46.0379 17.9693 46.1243 19.8691C46.2183 21.9247 46.2373 22.5399 46.2373 27.7428C46.2373 32.9439 46.2183 33.561 46.1243 35.6165C46.0379 37.5163 45.7199 38.5484 45.454 39.2348C45.0999 40.1444 44.6783 40.7929 43.9966 41.4746C43.3149 42.1563 42.6655 42.5778 41.7559 42.9319C41.0695 43.1997 40.0375 43.5159 38.1376 43.6023C36.084 43.6962 35.4669 43.7152 30.2639 43.7152C25.0629 43.7152 24.4458 43.6972 22.3921 43.6023Z" fill="url(#paint0_radial_24_11)"/>
<path d="M22.3921 43.6023C20.4923 43.5159 19.4603 43.1997 18.7738 42.9319C17.8643 42.5778 17.2158 42.1563 16.5332 41.4746C15.8505 40.7929 15.428 40.1444 15.0758 39.2348C14.808 38.5484 14.4919 37.5163 14.4055 35.6165C14.3105 33.5629 14.2915 32.9467 14.2915 27.7438C14.2915 22.5409 14.3124 21.9256 14.4045 19.8701C14.4909 17.9703 14.809 16.9401 15.0748 16.2518C15.429 15.3422 15.8515 14.6937 16.5322 14.0101C17.2139 13.3284 17.8624 12.905 18.7729 12.5528C19.4593 12.285 20.4914 11.9689 22.3912 11.8825C24.4458 11.7885 25.0629 11.7695 30.2639 11.7695C35.4669 11.7695 36.0821 11.7904 38.1376 11.8825C40.0375 11.9689 41.0676 12.2869 41.7559 12.5528C42.6655 12.905 43.314 13.3284 43.9966 14.0101C44.6793 14.6918 45.0999 15.3413 45.454 16.2508C45.7218 16.9373 46.0379 17.9693 46.1243 19.8691C46.2183 21.9247 46.2373 22.5399 46.2373 27.7428C46.2373 32.9439 46.2183 33.561 46.1243 35.6165C46.0379 37.5163 45.7199 38.5484 45.454 39.2348C45.0999 40.1444 44.6783 40.7929 43.9966 41.4746C43.3149 42.1563 42.6655 42.5778 41.7559 42.9319C41.0695 43.1997 40.0375 43.5159 38.1376 43.6023C36.084 43.6962 35.4669 43.7152 30.2639 43.7152C25.0629 43.7152 24.4458 43.6972 22.3921 43.6023Z" fill="#AAAAAA"/>
<path d="M26.3294 27.8209C26.3294 25.6328 28.0999 23.8585 30.2845 23.8585C32.4691 23.8585 34.2405 25.6328 34.2405 27.8209C34.2405 30.009 32.4691 31.7833 30.2845 31.7833C28.0999 31.7833 26.3294 30.009 26.3294 27.8209ZM24.1909 27.8209C24.1909 31.1919 26.919 33.9244 30.2845 33.9244C33.65 33.9244 36.3782 31.1919 36.3782 27.8209C36.3782 24.4499 33.65 21.7174 30.2845 21.7174C26.919 21.7174 24.191 24.4498 24.191 27.8209H24.1909ZM35.1954 21.4754C35.1953 21.7575 35.2787 22.0333 35.4351 22.268C35.5915 22.5026 35.8138 22.6855 36.074 22.7935C36.3342 22.9016 36.6205 22.93 36.8967 22.875C37.173 22.8201 37.4268 22.6844 37.626 22.485C37.8253 22.2856 37.961 22.0315 38.0161 21.7548C38.0711 21.4781 38.043 21.1913 37.9354 20.9307C37.8277 20.67 37.6452 20.4471 37.4111 20.2903C37.177 20.1335 36.9017 20.0497 36.6201 20.0496H36.6195C36.242 20.0498 35.8799 20.2001 35.6129 20.4674C35.3459 20.7347 35.1958 21.0973 35.1954 21.4754ZM25.4902 37.4962C24.3332 37.4434 23.7043 37.2504 23.2864 37.0873C22.7323 36.8713 22.337 36.6139 21.9214 36.1982C21.5057 35.7825 21.2485 35.3869 21.0337 34.8319C20.8708 34.4135 20.6781 33.7835 20.6255 32.6246C20.568 31.3717 20.5565 30.9953 20.5565 27.8211C20.5565 24.6469 20.5689 24.2716 20.6255 23.0176C20.6782 21.8587 20.8723 21.2299 21.0337 20.8103C21.2494 20.2553 21.5063 19.8593 21.9214 19.443C22.3365 19.0267 22.7314 18.769 23.2864 18.5539C23.7041 18.3908 24.3332 18.1977 25.4902 18.145C26.7411 18.0874 27.1168 18.0759 30.2845 18.0759C33.4522 18.0759 33.8283 18.0882 35.0803 18.1452C36.2373 18.198 36.8651 18.3925 37.284 18.5541C37.8381 18.7692 38.2334 19.0275 38.6491 19.4432C39.0647 19.859 39.321 20.2555 39.5367 20.8104C39.6996 21.2288 39.8924 21.8589 39.945 23.0178C40.0025 24.2717 40.014 24.6471 40.014 27.8213C40.014 30.9955 40.0025 31.3708 39.945 32.6248C39.8923 33.7837 39.6986 34.4135 39.5367 34.8321C39.321 35.3871 39.0641 35.783 38.6491 36.1984C38.234 36.6138 37.8381 36.8715 37.284 37.0875C36.8663 37.2507 36.2373 37.4437 35.0803 37.4964C33.8294 37.554 33.4536 37.5655 30.2845 37.5655C27.1154 37.5655 26.7407 37.554 25.4902 37.4964V37.4962ZM25.3919 16.0066C24.1286 16.0642 23.2653 16.2648 22.5114 16.5587C21.7311 16.8621 21.0697 17.2692 20.4092 17.9297C19.7487 18.5902 19.3434 19.2528 19.0404 20.0353C18.7471 20.7909 18.5467 21.655 18.4892 22.9204C18.4307 24.1878 18.4173 24.593 18.4173 27.8209C18.4173 31.0489 18.4307 31.454 18.4892 32.7214C18.5467 33.9869 18.7471 34.851 19.0404 35.6066C19.3434 36.3881 19.7488 37.0519 20.4092 37.7122C21.0696 38.3724 21.7302 38.7789 22.5114 39.0832C23.2667 39.377 24.1286 39.5776 25.3919 39.6353C26.6579 39.6929 27.0618 39.7072 30.2845 39.7072C33.5073 39.7072 33.9118 39.6938 35.1771 39.6353C36.4405 39.5776 37.3032 39.377 38.0576 39.0832C38.8379 38.7789 39.4993 38.3727 40.1598 37.7122C40.8203 37.0517 41.2248 36.3881 41.5286 35.6066C41.822 34.851 42.0232 33.9868 42.0798 32.7214C42.1373 31.4531 42.1507 31.0489 42.1507 27.8209C42.1507 24.593 42.1373 24.1878 42.0798 22.9204C42.0223 21.6549 41.822 20.7904 41.5286 20.0353C41.2248 19.2537 40.8192 18.5912 40.1598 17.9297C39.5004 17.2681 38.8379 16.8621 38.0585 16.5587C37.3032 16.2648 36.4404 16.0632 35.1781 16.0066C33.9125 15.9486 33.5082 15.9346 30.2859 15.9346C27.0637 15.9346 26.6584 15.948 25.3924 16.0066" fill="white"/>
<defs>
<radialGradient id="paint0_radial_24_11" cx="0" cy="0" r="1" gradientUnits="userSpaceOnUse" gradientTransform="translate(16.359 43.0154) scale(40.5593)">
<stop offset="0.09" stop-color="#FA8F21"/>
<stop offset="0.78" stop-color="#D82D7E"/>
</radialGradient>
</defs>
</svg>
