<svg width="36" height="24" viewBox="0 0 36 24" fill="none" xmlns="http://www.w3.org/2000/svg">
<path d="M15.6731 11.2786L15.6701 11.9868C15.6701 14.9301 15.8424 17.6134 16.1021 19.3626L16.3295 20.4503C16.4561 21.0264 16.6224 21.6824 16.7959 22.0173C17.4308 23.2422 18.6722 24 20.0009 24H20.1166C20.9827 23.9714 22.8023 23.2113 22.8023 23.1849C25.7303 21.9563 31.3791 18.2486 33.988 15.6052L34.7461 14.8116C34.9447 14.5965 35.1677 14.342 35.3062 14.1436C35.7687 13.5311 36 12.7733 36 12.0154C36 11.1695 35.7404 10.383 35.2495 9.73967L34.4705 8.89906L34.296 8.71966C31.9288 6.15311 25.7478 1.95631 22.5143 0.671929L22.0262 0.484843C21.4387 0.274279 20.6156 0.023132 20.1166 0C19.4817 0 18.8751 0.147604 18.2969 0.438406C17.5748 0.84597 16.9988 1.48926 16.6802 2.24711C16.4773 2.77143 16.1588 4.34661 16.1588 4.37525C15.8668 5.96348 15.6974 8.46964 15.6731 11.2786ZM0 12.0009C0 13.6774 1.34616 15.0367 3.00651 15.0367L10.405 14.3824C11.7075 14.3824 12.7635 13.3161 12.7635 12.0009C12.7635 10.6835 11.7075 9.61939 10.405 9.61939L3.00651 8.96508C1.34616 8.96508 0 10.3244 0 12.0009Z" fill="#AAAAAA"/>
</svg>
