<svg width="78" height="64" viewBox="0 0 78 64" fill="none" xmlns="http://www.w3.org/2000/svg">
<rect width="78" height="64" rx="20" fill="#57BE6C"/>
<path d="M56.4166 32L52.5533 27.5825L53.0916 21.74L47.3758 20.4417L44.3833 15.375L39 17.6867L33.6166 15.375L30.6241 20.4258L24.9083 21.7083L25.4466 27.5667L21.5833 32L25.4466 36.4175L24.9083 42.2758L30.6241 43.5742L33.6166 48.625L39 46.2975L44.3833 48.6092L47.3758 43.5583L53.0916 42.26L52.5533 36.4175L56.4166 32ZM35.9758 39.4733L29.9591 33.4408L32.3025 31.0975L35.9758 34.7867L45.2383 25.4925L47.5816 27.8358L35.9758 39.4733Z" fill="white"/>
</svg>
