<svg width="60" height="55" viewBox="0 0 60 55" fill="none" xmlns="http://www.w3.org/2000/svg">
<rect width="60" height="55" rx="15" fill="#F2F2F2"/>
<path d="M24.3782 41C36.8316 41 43.6419 30.9981 43.6419 22.3247C43.6419 22.0407 43.6359 21.7579 43.6227 21.4763C44.9479 20.5468 46.0915 19.3958 47 18.0775C45.7868 18.6003 44.4814 18.9523 43.1119 19.1109C44.5098 18.2984 45.5829 17.0129 46.0892 15.4805C44.7601 16.2449 43.3062 16.7837 41.79 17.0738C40.5545 15.7979 38.7955 15 36.8479 15C33.1089 15 30.077 17.9394 30.077 21.5627C30.077 22.0778 30.1365 22.5787 30.2526 23.0594C24.6255 22.7849 19.6358 20.173 16.2965 16.2016C15.695 17.2033 15.3786 18.3417 15.3797 19.5006C15.3797 21.7778 16.5749 23.7881 18.3926 24.9642C17.3174 24.9323 16.2659 24.6508 15.3263 24.1432C15.3253 24.1708 15.3253 24.1976 15.3253 24.2271C15.3253 27.4058 17.659 30.0598 20.757 30.6612C20.1752 30.8148 19.5748 30.8924 18.9717 30.8921C18.5362 30.8921 18.1118 30.8506 17.6993 30.7738C18.5612 33.3817 21.0607 35.2795 24.024 35.3326C21.7067 37.0934 18.7876 38.1421 15.615 38.1421C15.0753 38.1426 14.536 38.1122 14 38.0512C16.9964 39.9131 20.5544 40.9995 24.3785 40.9995" fill="#AAAAAA"/>
</svg>
